{"title":"Rome S01 720p BluRay x264-SiNNERS BOZX","uid":5282279,"size":28182645165,"categoryP":"video","categoryS":"hd___tv_shows","magnet":"?xt=urn:btih:ee3fd52ba2a813086b51e38cec9b20888350213a&amp;dn=Rome+S01+720p+BluRay+x264-SiNNERS+BOZX&amp;tr=udp%3A%2F%2Ftracker.openbittorrent.com%3A80&amp;tr=udp%3A%2F%2Fopen.demonii.com%3A1337&amp;tr=udp%3A%2F%2Ftracker.coppersurfer.tk%3A6969&amp;tr=udp%3A%2F%2Fexodus.desync.com%3A6969","seeders":0,"leechers":1,"uploader":"BOZX","files":-1,"time":1263590303,"description":"Rome.S01.720p.BluRay.x264.RoSubbed-SiNNERS\n &lt;a href=&quot;\nhttp://www.imdb.com/title/tt0384766/&quot; rel=&quot;nofollow&quot; target=&quot;_NEW&quot;&gt;\nhttp://www.imdb.com/title/tt0384766/&lt;/a&gt;\n\nNo nfo came with this so i dumped some mkv file data so you can see...\n\nGeneral\n\nFormat                           : Matroska\nFile size                        : 2.19 GiB\nDuration                         : 52mn 17s\nOverall bit rate                 : 5 989 Kbps\nEncoded date                     : UTC 2009-11-03 15:00:48\nWriting application              : mkvmerge v2.9.7 ('Tenderness') built on Jul  1 2009 18:43:35\nWriting library                  : libebml v0.7.7 + libmatroska v0.8.1\n\nVideo\n\nID                               : 1\nFormat                           : AVC\nFormat/Info                      : Advanced Video Codec\nFormat profile                   : &lt;a class=&quot;__cf_email__&quot; href=&quot;/cdn-cgi/l/email-protection&quot; data-cfemail=&quot;3e765759567e720d100f&quot;&gt;[email&amp;#160;protected]&lt;/a&gt;&lt;script cf-hash='f9e31' type=&quot;text/javascript&quot;&gt;\n/* &lt;![CDATA[ */!function(){try{var t=&quot;currentScript&quot;in document?document.currentScript:function(){for(var t=document.getElementsByTagName(&quot;script&quot;),e=t.length;e--;)if(t[e].getAttribute(&quot;cf-hash&quot;))return t[e]}();if(t&amp;&amp;t.previousSibling){var e,r,n,i,c=t.previousSibling,a=c.getAttribute(&quot;data-cfemail&quot;);if(a){for(e=&quot;&quot;,r=parseInt(a.substr(0,2),16),n=2;a.length-n;n+=2)i=parseInt(a.substr(n,2),16)^r,e+=String.fromCharCode(i);e=document.createTextNode(e),c.parentNode.replaceChild(e,c)}}}catch(u){}}();/* ]]&gt; */&lt;/script&gt;\nFormat settings, CABAC           : Yes\nFormat settings, ReFrames        : 5 frames\nMuxing mode                      : Container profile=&lt;a class=&quot;__cf_email__&quot; href=&quot;/cdn-cgi/l/email-protection&quot; data-cfemail=&quot;1643787d7879617856253827&quot;&gt;[email&amp;#160;protected]&lt;/a&gt;&lt;script cf-hash='f9e31' type=&quot;text/javascript&quot;&gt;\n/* &lt;![CDATA[ */!function(){try{var t=&quot;currentScript&quot;in document?document.currentScript:function(){for(var t=document.getElementsByTagName(&quot;script&quot;),e=t.length;e--;)if(t[e].getAttribute(&quot;cf-hash&quot;))return t[e]}();if(t&amp;&amp;t.previousSibling){var e,r,n,i,c=t.previousSibling,a=c.getAttribute(&quot;data-cfemail&quot;);if(a){for(e=&quot;&quot;,r=parseInt(a.substr(0,2),16),n=2;a.length-n;n+=2)i=parseInt(a.substr(n,2),16)^r,e+=String.fromCharCode(i);e=document.createTextNode(e),c.parentNode.replaceChild(e,c)}}}catch(u){}}();/* ]]&gt; */&lt;/script&gt;\nCodec ID                         : V_MPEG4/ISO/AVC\nDuration                         : 52mn 14s\nBit rate                         : 4 360 Kbps\nNominal bit rate                 : 4 475 Kbps\nWidth                            : 1 280 pixels\nHeight                           : 720 pixels\nDisplay aspect ratio             : 16:9\nFrame rate                       : 23.976 fps\nResolution                       : 24 bits\nColorimetry                      : 4:2:0\nScan type                        : Progressive\nBits/(Pixel*Frame)               : 0.197\nStream size                      : 1.59 GiB (73%)\nWriting library                  : x264 core 78 r1318 fe83a90\nLanguage                         : English\n\nAudio\n\nID                               : 2\nFormat                           : DTS\nFormat/Info                      : Digital Theater Systems\nCodec ID                         : A_DTS\nDuration                         : 52mn 17s\nBit rate mode                    : Constant\nBit rate                         : 1 510 Kbps\nChannel(s)                       : 6 channels\nChannel positions                : Front: L C R, Surround: L R, LFE\nSampling rate                    : 48.0 KHz\nResolution                       : 24 bits\nStream size                      : 565 MiB (25%)\nLanguage                         : English\n\nSubtitle : English and Romanian","torrent":{"xt":"urn:btih:ee3fd52ba2a813086b51e38cec9b20888350213a","amp;dn":"Rome+S01+720p+BluRay+x264-SiNNERS+BOZX","amp;tr":["udp%3A%2F%2Ftracker.openbittorrent.com%3A80","udp%3A%2F%2Fopen.demonii.com%3A1337","udp%3A%2F%2Ftracker.coppersurfer.tk%3A6969","udp%3A%2F%2Fexodus.desync.com%3A6969"],"infoHash":"ee3fd52ba2a813086b51e38cec9b20888350213a","infoHashBuffer":{"type":"Buffer","data":[238,63,213,43,162,168,19,8,107,81,227,140,236,155,32,136,131,80,33,58]},"announce":[],"urlList":[]}}